<svg version="1.1" fill="#3478f6" xmlns="http://www.w3.org/2000/svg" xmlns:xlink="http://www.w3.org/1999/xlink" x="0" y="0"
	 viewBox="0 0 48 48" style="enable-background:new 0 0 48 48;" xml:space="preserve">
<path d="M43.3,0c-0.4,0-0.8,0.3-0.9,0.8l-0.8,4.7h-4.6l0.7-4.4c0.1-0.5-0.2-1-0.7-1.1c-0.1,0-0.1,0-0.2,0C36.4,0,36,0.4,36,0.8
	l-0.8,4.7h-3.8c-0.5,0-0.9,0.4-0.9,0.9c0,0.5,0.4,0.9,0.9,0.9c0,0,0,0,0,0h3.5L34.3,11h-3.8c-0.5,0-0.9,0.4-0.9,0.9s0.4,0.9,0.9,0.9
	c0,0,0,0,0,0H34l-0.7,4.4c-0.1,0.5,0.2,1,0.7,1.1c0.5,0.1,1-0.2,1.1-0.7c0,0,0,0,0,0l0.8-4.7h4.6l-0.7,4.4c-0.1,0.5,0.2,1,0.7,1.1
	c0.5,0.1,1-0.2,1.1-0.7c0,0,0,0,0,0l0.8-4.7h3.8c0.5,0,0.9-0.4,0.9-0.9S46.6,11,46.1,11c0,0,0,0,0,0h-3.5l0.6-3.7H47
	c0.5,0,0.9-0.4,0.9-0.9c0-0.5-0.4-0.9-0.9-0.9c0,0,0,0,0,0h-3.5l0.7-4.4c0.1-0.5-0.2-1-0.7-1.1C43.4,0,43.3,0,43.3,0z M36.7,7.4h4.6
	L40.7,11h-4.6L36.7,7.4z"/>
<path d="M43.3,29.6c-0.4,0-0.8,0.3-0.9,0.8l-0.8,4.7h-4.6l0.7-4.4c0.1-0.5-0.2-1-0.7-1.1c-0.1,0-0.1,0-0.2,0c-0.4,0-0.8,0.3-0.9,0.8
	l-0.8,4.7h-3.8c-0.5,0-0.9,0.4-0.9,0.9c0,0.5,0.4,0.9,0.9,0.9c0,0,0,0,0,0h3.5l-0.6,3.7h-3.8c-0.5,0-0.9,0.4-0.9,0.9
	c0,0.5,0.4,0.9,0.9,0.9c0,0,0,0,0,0H34l-0.7,4.4c-0.1,0.5,0.2,1,0.7,1.1s1-0.2,1.1-0.7c0,0,0,0,0,0l0.8-4.7h4.6l-0.7,4.4
	c-0.1,0.5,0.2,1,0.7,1.1c0.5,0.1,1-0.2,1.1-0.7c0,0,0,0,0,0l0.8-4.7h3.8c0.5,0,0.9-0.4,0.9-0.9c0-0.5-0.4-0.9-0.9-0.9c0,0,0,0,0,0
	h-3.5l0.6-3.7H47c0.5,0,0.9-0.4,0.9-0.9c0-0.5-0.4-0.9-0.9-0.9c0,0,0,0,0,0h-3.5l0.7-4.4c0.1-0.5-0.2-1-0.7-1.1
	C43.4,29.6,43.3,29.6,43.3,29.6z M36.7,37h4.6l-0.6,3.7h-4.6L36.7,37z"/>
<path d="M28.5,14.8c-0.4,0-0.8,0.3-0.9,0.8l-0.8,4.7h-4.6l0.7-4.4c0.1-0.5-0.2-1-0.7-1.1c-0.1,0-0.1,0-0.2,0c-0.4,0-0.8,0.3-0.9,0.8
	l-0.8,4.7h-3.8c-0.5,0-0.9,0.4-0.9,0.9c0,0.5,0.4,0.9,0.9,0.9c0,0,0,0,0,0h3.5l-0.6,3.7h-3.8c-0.5,0-0.9,0.4-0.9,0.9
	s0.4,0.9,0.9,0.9c0,0,0,0,0,0h3.5l-0.7,4.4c-0.1,0.5,0.2,1,0.7,1.1c0.5,0.1,1-0.2,1.1-0.7c0,0,0,0,0,0l0.8-4.7h4.6l-0.7,4.4
	c-0.1,0.5,0.2,1,0.7,1.1c0.5,0.1,1-0.2,1.1-0.7c0,0,0,0,0,0l0.8-4.7h3.8c0.5,0,0.9-0.4,0.9-0.9s-0.4-0.9-0.9-0.9c0,0,0,0,0,0h-3.5
	l0.6-3.7h3.8c0.5,0,0.9-0.4,0.9-0.9c0-0.5-0.4-0.9-0.9-0.9c0,0,0,0,0,0h-3.5l0.7-4.4c0.1-0.5-0.2-1-0.7-1.1
	C28.7,14.8,28.6,14.8,28.5,14.8z M22,22.2h4.6L26,25.8h-4.6L22,22.2z"/>
<path d="M13.4,0c-0.4,0-0.8,0.3-0.8,0.8l-0.8,4.6H7.3L8,1.1c0.1-0.5-0.2-1-0.7-1C7.3,0,7.2,0,7.1,0C6.7,0,6.3,0.3,6.3,0.8L5.5,5.4
	H1.8c-0.5,0-0.9,0.4-0.9,0.9c0,0.5,0.4,0.9,0.9,0.9c0,0,0,0,0,0h3.4l-0.6,3.6H0.9c-0.5,0-0.9,0.4-0.9,0.9c0,0.5,0.4,0.9,0.9,0.9
	c0,0,0,0,0,0h3.4l-0.7,4.3c-0.1,0.5,0.2,1,0.7,1c0.5,0.1,1-0.2,1-0.7c0,0,0,0,0,0l0.8-4.6h4.4l-0.7,4.3c-0.1,0.5,0.2,1,0.7,1
	c0.5,0.1,1-0.2,1-0.7c0,0,0,0,0,0l0.8-4.6h3.7c0.5,0,0.9-0.4,0.9-0.9c0-0.5-0.4-0.9-0.9-0.9c0,0,0,0,0,0h-3.4l0.6-3.6H17
	c0.5,0,0.9-0.4,0.9-0.9c0-0.5-0.4-0.9-0.9-0.9c0,0,0,0,0,0h-3.4l0.7-4.3c0.1-0.5-0.2-1-0.7-1C13.5,0,13.5,0,13.4,0z M7,7.2h4.4
	l-0.6,3.6H6.4L7,7.2z"/>
<path d="M13.4,30.1c-0.4,0-0.8,0.3-0.8,0.8l-0.8,4.6H7.3L8,31.1c0.1-0.5-0.2-1-0.7-1c-0.1,0-0.1,0-0.2,0c-0.4,0-0.8,0.3-0.8,0.8
	l-0.8,4.6H1.8c-0.5,0-0.9,0.4-0.9,0.9c0,0.5,0.4,0.9,0.9,0.9c0,0,0,0,0,0h3.4l-0.6,3.6H0.9c-0.5,0-0.9,0.4-0.9,0.9
	c0,0.5,0.4,0.9,0.9,0.9c0,0,0,0,0,0h3.4l-0.7,4.3c-0.1,0.5,0.2,1,0.7,1c0.5,0.1,1-0.2,1-0.7c0,0,0,0,0,0l0.8-4.6h4.4l-0.7,4.3
	c-0.1,0.5,0.2,1,0.7,1c0.5,0.1,1-0.2,1-0.7c0,0,0,0,0,0l0.8-4.6h3.7c0.5,0,0.9-0.4,0.9-0.9c0-0.5-0.4-0.9-0.9-0.9c0,0,0,0,0,0h-3.4
	l0.6-3.6H17c0.5,0,0.9-0.4,0.9-0.9c0-0.5-0.4-0.9-0.9-0.9c0,0,0,0,0,0h-3.4l0.7-4.3c0.1-0.5-0.2-1-0.7-1
	C13.5,30.1,13.5,30.1,13.4,30.1z M7,37.3h4.4l-0.6,3.6H6.4L7,37.3z"/>
</svg>
