<svg version="1.1" fill="#3478f6" xmlns="http://www.w3.org/2000/svg" xmlns:xlink="http://www.w3.org/1999/xlink" x="0" y="0"
	 viewBox="0 0 48 48" style="enable-background:new 0 0 48 48;" xml:space="preserve">
<path d="M21.2,1.5c-0.7,0-1.2,0.5-1.3,1.2l-1.2,7.3h-7l1.1-6.8c0.1-0.8-0.4-1.5-1.1-1.6c-0.1,0-0.2,0-0.3,0c-0.7,0-1.2,0.5-1.3,1.2
	L8.8,9.9H3c-0.8,0-1.4,0.6-1.4,1.4c0,0.8,0.6,1.4,1.4,1.4c0,0,0,0,0,0h5.4l-0.9,5.6H1.6c-0.8,0-1.4,0.6-1.4,1.4
	c0,0.8,0.6,1.4,1.4,1.4c0,0,0,0,0,0H7L5.8,28c-0.1,0.8,0.4,1.5,1.1,1.6c0.8,0.1,1.5-0.4,1.6-1.1c0,0,0,0,0-0.1l1.2-7.3h7L15.7,28
	c-0.1,0.8,0.4,1.5,1.1,1.6c0.8,0.1,1.5-0.4,1.6-1.1c0,0,0,0,0-0.1l1.2-7.3h5.8c0.8,0,1.4-0.6,1.4-1.4c0-0.8-0.6-1.4-1.4-1.4
	c0,0,0,0,0,0h-5.4l0.9-5.6h5.8c0.8,0,1.4-0.6,1.4-1.4c0-0.8-0.6-1.4-1.4-1.4c0,0,0,0,0,0h-5.4l1.1-6.8c0.1-0.8-0.4-1.5-1.1-1.6
	C21.4,1.5,21.3,1.5,21.2,1.5z M11.2,12.7h7l-0.9,5.6h-7L11.2,12.7z"/>
<path d="M40.7,18.4c-0.7,0-1.2,0.5-1.3,1.2l-1.2,7.3h-7l1.1-6.8c0.1-0.8-0.4-1.5-1.1-1.6c-0.1,0-0.2,0-0.3,0c-0.7,0-1.2,0.5-1.3,1.2
	l-1.2,7.3h-5.8c-0.8,0-1.4,0.6-1.4,1.4c0,0.8,0.6,1.4,1.4,1.4c0,0,0,0,0,0h5.4L27,35.2h-5.8c-0.8,0-1.4,0.6-1.4,1.4
	c0,0.8,0.6,1.4,1.4,1.4c0,0,0,0,0,0h5.4l-1.1,6.8c-0.1,0.8,0.4,1.5,1.1,1.6c0.8,0.1,1.5-0.4,1.6-1.1c0,0,0,0,0-0.1l1.2-7.3h7
	l-1.1,6.8c-0.1,0.8,0.4,1.5,1.1,1.6c0.8,0.1,1.5-0.4,1.6-1.1c0,0,0,0,0-0.1l1.2-7.3H45c0.8,0,1.4-0.6,1.4-1.4c0-0.8-0.6-1.4-1.4-1.4
	c0,0,0,0,0,0h-5.4l0.9-5.6h5.8c0.8,0,1.4-0.6,1.4-1.4c0-0.8-0.6-1.4-1.4-1.4c0,0,0,0,0,0H41l1.1-6.8c0.1-0.8-0.4-1.5-1.1-1.6
	C40.9,18.4,40.8,18.4,40.7,18.4z M30.7,29.6h7l-0.9,5.6h-7L30.7,29.6z"/>
</svg>
