<svg version="1.1" fill="#3478f6" xmlns="http://www.w3.org/2000/svg" xmlns:xlink="http://www.w3.org/1999/xlink" x="0" y="0"
	 viewBox="0 0 48 48" style="enable-background:new 0 0 48 48;" xml:space="preserve">
<path d="M17.3,12.3c-0.6,0-1,0.4-1.1,1l-1,5.9H9.5l0.9-5.5c0.1-0.6-0.3-1.2-0.9-1.3c-0.1,0-0.2,0-0.3,0c-0.5,0-1,0.4-1.1,1l-1,5.9
	H2.4c-0.6,0-1.2,0.5-1.2,1.1c0,0.6,0.5,1.2,1.1,1.2c0,0,0,0,0,0h4.4L6,26.1H1.3c-0.6,0-1.2,0.5-1.2,1.1c0,0.6,0.5,1.2,1.1,1.2
	c0,0,0,0,0,0h4.4l-0.9,5.5c-0.1,0.6,0.3,1.2,0.9,1.3C6.3,35.4,6.9,35,7,34.4c0,0,0,0,0,0l1-5.9h5.7l-0.9,5.5
	c-0.1,0.6,0.3,1.2,0.9,1.3c0.6,0.1,1.2-0.3,1.3-0.9c0,0,0,0,0,0l1-5.9h4.8c0.6,0,1.2-0.5,1.2-1.1c0-0.6-0.5-1.2-1.1-1.2c0,0,0,0,0,0
	h-4.4l0.8-4.6h4.8c0.6,0,1.2-0.5,1.2-1.1c0-0.6-0.5-1.2-1.1-1.2c0,0,0,0,0,0h-4.4l0.9-5.5c0.1-0.6-0.3-1.2-0.9-1.3
	C17.5,12.3,17.4,12.3,17.3,12.3z M9.1,21.5h5.7l-0.8,4.6H8.4L9.1,21.5z"/>
<path d="M42.1,0c-0.6,0-1,0.4-1.1,1l-1,5.9h-5.7l0.9-5.5c0.1-0.6-0.3-1.2-0.9-1.3c-0.1,0-0.2,0-0.3,0c-0.5,0-1,0.4-1.1,1l-1,5.9
	h-4.8c-0.6,0-1.2,0.5-1.2,1.1c0,0.6,0.5,1.2,1.1,1.2c0,0,0,0,0,0h4.4l-0.8,4.6h-4.8c-0.6,0-1.2,0.5-1.2,1.1c0,0.6,0.5,1.2,1.1,1.2
	c0,0,0,0,0,0h4.4l-0.9,5.5c-0.1,0.6,0.3,1.2,0.9,1.3c0.6,0.1,1.2-0.3,1.3-0.9c0,0,0,0,0,0l1-5.9h5.7l-0.9,5.5
	c-0.1,0.6,0.3,1.2,0.9,1.3c0.6,0.1,1.2-0.3,1.3-0.9c0,0,0,0,0,0l1-5.9h4.8c0.6,0,1.2-0.5,1.2-1.1c0-0.6-0.5-1.2-1.1-1.2c0,0,0,0,0,0
	h-4.4L42,9.2h4.8c0.6,0,1.2-0.5,1.2-1.1c0-0.6-0.5-1.2-1.1-1.2c0,0,0,0,0,0h-4.4l0.9-5.5C43.4,0.7,43,0.1,42.4,0
	C42.3,0,42.2,0,42.1,0z M33.9,9.2h5.7l-0.8,4.6h-5.7L33.9,9.2z"/>
<path d="M38,25c-0.6,0-1,0.4-1.1,1l-1,5.9h-5.7l0.9-5.5c0.1-0.6-0.3-1.2-0.9-1.3c-0.1,0-0.2,0-0.3,0c-0.5,0-1,0.4-1.1,1l-1,5.9h-4.8
	c-0.6,0-1.2,0.5-1.2,1.1c0,0.6,0.5,1.2,1.1,1.2c0,0,0,0,0,0h4.4l-0.8,4.6h-4.8c-0.6,0-1.2,0.5-1.2,1.1c0,0.6,0.5,1.2,1.1,1.2
	c0,0,0,0,0,0h4.4l-0.9,5.5c-0.1,0.6,0.3,1.2,0.9,1.3c0.6,0.1,1.2-0.3,1.3-0.9c0,0,0,0,0,0l1-5.9h5.7l-0.9,5.5
	c-0.1,0.6,0.3,1.2,0.9,1.3c0.6,0.1,1.2-0.3,1.3-0.9c0,0,0,0,0,0l1-5.9h4.8c0.6,0,1.2-0.5,1.2-1.1c0-0.6-0.5-1.2-1.1-1.2c0,0,0,0,0,0
	h-4.4l0.8-4.6h4.8c0.6,0,1.2-0.5,1.2-1.1c0-0.6-0.5-1.2-1.1-1.2c0,0,0,0,0,0h-4.4l0.9-5.5c0.1-0.6-0.3-1.2-0.9-1.3
	C38.1,25,38,25,38,25z M29.8,34.2h5.7l-0.8,4.6H29L29.8,34.2z"/>
</svg>
